<svg xmlns="http://www.w3.org/2000/svg" xmlns:xlink="http://www.w3.org/1999/xlink" width="300" zoomAndPan="magnify" viewBox="0 0 224.87999 74.999997" height="100" preserveAspectRatio="xMidYMid meet" version="1.0"><defs><filter x="0%" y="0%" width="100%" height="100%" id="0fea4fdb88"><feColorMatrix values="0 0 0 0 1 0 0 0 0 1 0 0 0 0 1 0 0 0 1 0" color-interpolation-filters="sRGB"/></filter><g/><clipPath id="8a3725f116"><path d="M 37 23 L 74 23 L 74 74.980469 L 37 74.980469 Z M 37 23 " clip-rule="nonzero"/></clipPath><mask id="9e8e60663c"><g filter="url(#0fea4fdb88)"><rect x="-22.487999" width="269.855988" fill="#000000" y="-7.5" height="89.999996" fill-opacity="0.53"/></g></mask><clipPath id="2b49f6d0e2"><rect x="0" width="37" y="0" height="52"/></clipPath></defs><g fill="#ffffff" fill-opacity="1"><g transform="translate(87.578342, 71.495223)"><g><path d="M 9.671875 0 L 5.78125 0 L 0.296875 -16.265625 L 3.703125 -16.265625 L 7.65625 -4.140625 L 7.9375 -4.140625 L 11.828125 -16.265625 L 15.15625 -16.265625 Z M 9.671875 0 "/></g></g></g><g fill="#ffffff" fill-opacity="1"><g transform="translate(103.018234, 71.495223)"><g><path d="M 3.296875 -13.734375 C 2.742188 -13.734375 2.289062 -13.898438 1.9375 -14.234375 C 1.59375 -14.578125 1.421875 -15.015625 1.421875 -15.546875 C 1.421875 -16.078125 1.59375 -16.507812 1.9375 -16.84375 C 2.289062 -17.1875 2.742188 -17.359375 3.296875 -17.359375 C 3.671875 -17.359375 4.003906 -17.28125 4.296875 -17.125 C 4.585938 -16.96875 4.8125 -16.753906 4.96875 -16.484375 C 5.125 -16.210938 5.203125 -15.898438 5.203125 -15.546875 C 5.203125 -15.203125 5.125 -14.890625 4.96875 -14.609375 C 4.8125 -14.335938 4.585938 -14.125 4.296875 -13.96875 C 4.003906 -13.8125 3.671875 -13.734375 3.296875 -13.734375 Z M 1.765625 0 L 1.765625 -12.265625 L 4.84375 -12.265625 L 4.84375 0 Z M 1.765625 0 "/></g></g></g><g fill="#ffffff" fill-opacity="1"><g transform="translate(109.625795, 71.495223)"><g><path d="M 8.578125 0.234375 C 7.015625 0.234375 5.847656 -0.351562 5.078125 -1.53125 L 4.84375 -1.484375 L 4.84375 0 L 1.765625 0 L 1.765625 -17.203125 L 4.84375 -17.203125 L 4.84375 -10.828125 L 5.078125 -10.78125 C 5.503906 -11.363281 6.003906 -11.796875 6.578125 -12.078125 C 7.148438 -12.359375 7.835938 -12.5 8.640625 -12.5 C 9.640625 -12.5 10.507812 -12.265625 11.25 -11.796875 C 11.988281 -11.328125 12.566406 -10.617188 12.984375 -9.671875 C 13.398438 -8.722656 13.609375 -7.539062 13.609375 -6.125 C 13.609375 -4.726562 13.390625 -3.550781 12.953125 -2.59375 C 12.523438 -1.644531 11.929688 -0.9375 11.171875 -0.46875 C 10.421875 0 9.554688 0.234375 8.578125 0.234375 Z M 7.640625 -2.375 C 8.546875 -2.375 9.234375 -2.675781 9.703125 -3.28125 C 10.179688 -3.882812 10.421875 -4.832031 10.421875 -6.125 C 10.421875 -7.425781 10.179688 -8.378906 9.703125 -8.984375 C 9.234375 -9.585938 8.546875 -9.890625 7.640625 -9.890625 C 6.773438 -9.890625 6.085938 -9.578125 5.578125 -8.953125 C 5.066406 -8.328125 4.8125 -7.382812 4.8125 -6.125 C 4.8125 -4.863281 5.066406 -3.921875 5.578125 -3.296875 C 6.085938 -2.679688 6.773438 -2.375 7.640625 -2.375 Z M 7.640625 -2.375 "/></g></g></g><g fill="#ffffff" fill-opacity="1"><g transform="translate(124.320393, 71.495223)"><g><path d="M 12.125 -5.4375 L 4.234375 -5.4375 C 4.328125 -4.375 4.628906 -3.597656 5.140625 -3.109375 C 5.660156 -2.617188 6.375 -2.375 7.28125 -2.375 C 7.976562 -2.375 8.546875 -2.503906 8.984375 -2.765625 C 9.421875 -3.035156 9.773438 -3.4375 10.046875 -3.96875 L 10.28125 -3.96875 L 12.328125 -2.65625 C 11.921875 -1.800781 11.3125 -1.101562 10.5 -0.5625 C 9.695312 -0.03125 8.625 0.234375 7.28125 0.234375 C 6.007812 0.234375 4.910156 -0.00390625 3.984375 -0.484375 C 3.066406 -0.972656 2.351562 -1.691406 1.84375 -2.640625 C 1.34375 -3.597656 1.09375 -4.757812 1.09375 -6.125 C 1.09375 -7.519531 1.359375 -8.695312 1.890625 -9.65625 C 2.421875 -10.613281 3.132812 -11.328125 4.03125 -11.796875 C 4.925781 -12.265625 5.929688 -12.5 7.046875 -12.5 C 8.785156 -12.5 10.113281 -12.039062 11.03125 -11.125 C 11.957031 -10.207031 12.421875 -8.859375 12.421875 -7.078125 C 12.421875 -6.429688 12.398438 -5.929688 12.359375 -5.578125 Z M 9.484375 -7.4375 C 9.453125 -8.363281 9.234375 -9.039062 8.828125 -9.46875 C 8.421875 -9.894531 7.828125 -10.109375 7.046875 -10.109375 C 5.492188 -10.109375 4.582031 -9.21875 4.3125 -7.4375 Z M 9.484375 -7.4375 "/></g></g></g><g fill="#ffffff" fill-opacity="1"><g transform="translate(137.657882, 71.495223)"><g><path d="M 5.234375 0 L 2.109375 0 L 2.109375 -16.265625 L 5.796875 -16.265625 L 12.328125 -5.78125 L 12.609375 -5.828125 L 12.609375 -16.265625 L 15.703125 -16.265625 L 15.703125 0 L 12.40625 0 L 5.5 -11.1875 L 5.234375 -11.140625 Z M 5.234375 0 "/></g></g></g><g fill="#ffffff" fill-opacity="1"><g transform="translate(155.489402, 71.495223)"><g><path d="M 12.125 -5.4375 L 4.234375 -5.4375 C 4.328125 -4.375 4.628906 -3.597656 5.140625 -3.109375 C 5.660156 -2.617188 6.375 -2.375 7.28125 -2.375 C 7.976562 -2.375 8.546875 -2.503906 8.984375 -2.765625 C 9.421875 -3.035156 9.773438 -3.4375 10.046875 -3.96875 L 10.28125 -3.96875 L 12.328125 -2.65625 C 11.921875 -1.800781 11.3125 -1.101562 10.5 -0.5625 C 9.695312 -0.03125 8.625 0.234375 7.28125 0.234375 C 6.007812 0.234375 4.910156 -0.00390625 3.984375 -0.484375 C 3.066406 -0.972656 2.351562 -1.691406 1.84375 -2.640625 C 1.34375 -3.597656 1.09375 -4.757812 1.09375 -6.125 C 1.09375 -7.519531 1.359375 -8.695312 1.890625 -9.65625 C 2.421875 -10.613281 3.132812 -11.328125 4.03125 -11.796875 C 4.925781 -12.265625 5.929688 -12.5 7.046875 -12.5 C 8.785156 -12.5 10.113281 -12.039062 11.03125 -11.125 C 11.957031 -10.207031 12.421875 -8.859375 12.421875 -7.078125 C 12.421875 -6.429688 12.398438 -5.929688 12.359375 -5.578125 Z M 9.484375 -7.4375 C 9.453125 -8.363281 9.234375 -9.039062 8.828125 -9.46875 C 8.421875 -9.894531 7.828125 -10.109375 7.046875 -10.109375 C 5.492188 -10.109375 4.582031 -9.21875 4.3125 -7.4375 Z M 9.484375 -7.4375 "/></g></g></g><g fill="#ffffff" fill-opacity="1"><g transform="translate(168.826891, 71.495223)"><g><path d="M 8.46875 -2.921875 L 9.265625 -0.640625 C 8.929688 -0.367188 8.507812 -0.15625 8 0 C 7.5 0.15625 6.929688 0.234375 6.296875 0.234375 C 4.972656 0.234375 3.960938 -0.125 3.265625 -0.84375 C 2.578125 -1.570312 2.234375 -2.625 2.234375 -4 L 2.234375 -9.828125 L 0.359375 -9.828125 L 0.359375 -12.28125 L 2.234375 -12.28125 L 2.234375 -14.671875 L 5.3125 -15.171875 L 5.3125 -12.28125 L 8.796875 -12.28125 L 8.796875 -9.828125 L 5.3125 -9.828125 L 5.3125 -4.234375 C 5.3125 -3.617188 5.4375 -3.171875 5.6875 -2.890625 C 5.945312 -2.617188 6.316406 -2.484375 6.796875 -2.484375 C 7.347656 -2.484375 7.828125 -2.628906 8.234375 -2.921875 Z M 8.46875 -2.921875 "/></g></g></g><g fill="#72a3b3" fill-opacity="1"><g transform="translate(30.18763, 72.724779)"><g><path d="M 18.921875 0 L 11.3125 0 L 0.5625 -31.828125 L 7.25 -31.828125 L 14.96875 -8.09375 L 15.515625 -8.09375 L 23.140625 -31.828125 L 29.640625 -31.828125 Z M 18.921875 0 "/></g></g></g><g clip-path="url(#8a3725f116)"><g mask="url(#9e8e60663c)"><g transform="matrix(1, 0, 0, 1, 37, 23)"><g clip-path="url(#2b49f6d0e2)"><g fill="#72a3b3" fill-opacity="1"><g transform="translate(1.121198, 47.79207)"><g><path d="M 10.234375 0 L 4.140625 0 L 4.140625 -31.828125 L 11.34375 -31.828125 L 24.125 -11.3125 L 24.6875 -11.40625 L 24.6875 -31.828125 L 30.734375 -31.828125 L 30.734375 0 L 24.296875 0 L 10.78125 -21.890625 L 10.234375 -21.8125 Z M 10.234375 0 "/></g></g></g></g></g></g></g></svg>